<?xml version="1.0" encoding="utf-8"?>
<!DOCTYPE svg PUBLIC "-//W3C//DTD SVG 1.1//EN" "http://www.w3.org/Graphics/SVG/1.1/DTD/svg11.dtd">
<svg  viewBox="0 0 137 137" xmlns="http://www.w3.org/2000/svg" xmlns:xlink="http://www.w3.org/1999/xlink" x="0px" y="0px" fill="white">
<path fill-rule="evenodd" clip-rule="evenodd" d="M73.4845 20H60.8581C50.4823 20 40.4738 23.8406 32.7615 30.7817L31.8889 31.5671C25.0767 37.698 29.4137 49 38.5785 49H95.764C104.929 49 109.266 37.698 102.454 31.567L101.581 30.7816C93.8687 23.8406 83.8602 20 73.4845 20ZM60.8581 12C48.506 12 36.5911 16.5722 27.4098 24.8353L26.5371 25.6207C14.2752 36.6564 22.0818 57 38.5785 57H95.764C112.261 57 120.067 36.6564 107.805 25.6207L106.933 24.8353C97.7515 16.5722 85.8365 12 73.4845 12H60.8581ZM24.9291 65.7166L13 70.4882L16.3425 78.8445L28.2717 74.0728C30.775 73.0715 33.5675 73.0715 36.0709 74.0728L42.4291 76.6162C47.0782 78.4758 52.2644 78.4758 56.9134 76.6162L63.2717 74.0728C65.775 73.0715 68.5675 73.0715 71.0709 74.0728L77.4291 76.6162C82.0782 78.4758 87.2644 78.4758 91.9134 76.6162L98.2717 74.0728C100.775 73.0715 103.568 73.0715 106.071 74.0728L118 78.8445L121.343 70.4882L109.413 65.7166C104.764 63.857 99.5782 63.857 94.9291 65.7166L88.5709 68.2599C86.0675 69.2612 83.275 69.2612 80.7717 68.2599L74.4134 65.7166C69.7644 63.857 64.5782 63.857 59.9291 65.7166L53.5709 68.2599C51.0675 69.2612 48.275 69.2612 45.7717 68.2599L39.4134 65.7166C34.7644 63.857 29.5782 63.857 24.9291 65.7166ZM109.171 95H25.1713C23.7905 95 22.6713 96.1193 22.6713 97.5C22.6713 98.8807 23.7905 100 25.1713 100H37.6713H96.6713H109.171C110.552 100 111.671 98.8807 111.671 97.5C111.671 96.1193 110.552 95 109.171 95ZM110.483 107.919C115.663 107.273 119.671 102.855 119.671 97.5C119.671 91.701 114.97 87 109.171 87H25.1713C19.3723 87 14.6713 91.701 14.6713 97.5C14.6713 102.855 18.6794 107.273 23.8591 107.919C22.4685 110.29 21.6713 113.052 21.6713 116C21.6713 124.837 28.8347 132 37.6713 132H96.6713C105.508 132 112.671 124.837 112.671 116C112.671 113.052 111.874 110.29 110.483 107.919ZM96.6713 108H37.6713C33.253 108 29.6713 111.582 29.6713 116C29.6713 120.418 33.253 124 37.6713 124H96.6713C101.09 124 104.671 120.418 104.671 116C104.671 111.582 101.09 108 96.6713 108ZM59.6713 26H51.6713V34H59.6713V26ZM86.6713 35H94.6713V43H86.6713V35ZM46.6713 33H38.6713V41H46.6713V33Z" fill="inherit" stroke="none"></path>
</svg>