<?xml version="1.0" encoding="utf-8"?>
<!DOCTYPE svg PUBLIC "-//W3C//DTD SVG 1.1//EN" "http://www.w3.org/Graphics/SVG/1.1/DTD/svg11.dtd">
<svg  viewBox="0 0 137 137" xmlns="http://www.w3.org/2000/svg" xmlns:xlink="http://www.w3.org/1999/xlink" x="0px" y="0px" fill="white">
<path fill-rule="evenodd" clip-rule="evenodd" d="M40.3492 0L33 2.6727L44.3148 33.7851H33.5093V117.607C33.5093 125.873 40.2107 132.575 48.4774 132.575H79.4116C87.6782 132.575 94.3797 125.873 94.3797 117.607V60.7267C108.596 60.5955 120.08 49.0304 120.08 34.7831C120.08 20.4542 108.464 8.83835 94.1353 8.83835C80.1405 8.83835 68.7338 19.9187 68.2093 33.7851H52.6359L40.3492 0ZM47.218 41.7681H41.4923V54.7404H51.9357L47.218 41.7681ZM60.2568 54.7404L55.5392 41.7681H86.3967V54.7404H60.2568ZM94.1353 16.8214C104.055 16.8214 112.097 24.8631 112.097 34.7831C112.097 44.6215 104.187 52.6124 94.3797 52.7432V33.7851H76.2008C76.7186 24.3293 84.5501 16.8214 94.1353 16.8214ZM41.4923 62.7234V117.607C41.4923 121.464 44.6196 124.592 48.4774 124.592H79.4116C83.2693 124.592 86.3967 121.464 86.3967 117.607V62.7234H41.4923ZM68.0274 71.7044H76.0104V79.6874H68.0274V71.7044ZM48.9254 91.6617H56.9084V99.6447H48.9254V91.6617ZM56.9084 107.628H48.9254V115.611H56.9084V107.628Z" fill="inherit" stroke="none"></path>
</svg>