<?xml version="1.0" encoding="utf-8"?>
<!DOCTYPE svg PUBLIC "-//W3C//DTD SVG 1.1//EN" "http://www.w3.org/Graphics/SVG/1.1/DTD/svg11.dtd">
<svg  viewBox="0 0 137 137" xmlns="http://www.w3.org/2000/svg" xmlns:xlink="http://www.w3.org/1999/xlink" x="0px" y="0px" fill="white">
<path fill-rule="evenodd" clip-rule="evenodd" d="M47.7 16.946C48.7092 13.8061 52.0222 12.6516 54.4259 14.0559C78.6859 28.2293 104.668 53.3598 117.664 78.7584C118.832 81.0423 117.686 84.1032 114.678 85.0695L111.4 86.1291C95.2093 59.9663 75.3767 38.7237 46.3172 21.248L47.7 16.946ZM43.663 29.5055L18.7096 107.138C17.3963 111.224 21.2549 115.083 25.3409 113.771L47.2891 106.719L47.2911 106.725L52.7967 104.986V122.914C52.7967 124.658 54.2105 126.073 55.9598 126.073C57.7067 126.073 59.1228 124.657 59.1228 122.91V111.839L59.1227 111.839V102.877L68.4654 99.9161L68.4657 99.9172L72.8294 98.5194V107.098C72.8294 108.842 74.2434 110.257 75.9925 110.257C77.7394 110.257 79.1555 108.841 79.1555 107.094V96.5514L79.1554 96.551L79.1555 96.5509V96.5508H79.1561L103.125 88.8036C88.0834 64.964 69.8671 45.6093 43.663 29.5055ZM85.4817 103.309L107.611 96.1995L107.699 96.352L108.392 95.9484L117.258 93.1001C124.645 90.7269 128.977 82.3516 125.173 74.9163C111.318 47.8387 84.0737 21.6082 58.6808 6.77292C51.1818 2.39175 42.1701 6.58584 39.6697 14.3648L10.6794 104.557C7.26472 115.18 17.2971 125.214 27.9209 121.801L46.4706 115.842V122.914C46.4706 128.157 50.7214 132.399 55.9598 132.399C61.2005 132.399 65.449 128.151 65.449 122.91V109.774L66.7703 109.342C67.779 113.5 71.5267 116.584 75.9925 116.584C81.2332 116.584 85.4817 112.335 85.4817 107.094V103.309ZM57.5716 54.6906C57.5716 59.349 53.7952 63.1254 49.1368 63.1254C44.4783 63.1254 40.7019 59.349 40.7019 54.6906C40.7019 50.0321 44.4783 46.2557 49.1368 46.2557C53.7952 46.2557 57.5716 50.0321 57.5716 54.6906ZM74.9683 84.2122C78.7533 84.2122 81.8216 81.1439 81.8216 77.3589C81.8216 73.5739 78.7533 70.5056 74.9683 70.5056C71.1833 70.5056 68.115 73.5739 68.115 77.3589C68.115 81.1439 71.1833 84.2122 74.9683 84.2122ZM74.9683 91.5927C82.8294 91.5927 89.2021 85.22 89.2021 77.3589C89.2021 69.4978 82.8294 63.1251 74.9683 63.1251C67.1072 63.1251 60.7345 69.4978 60.7345 77.3589C60.7345 85.22 67.1072 91.5927 74.9683 91.5927ZM44.9193 91.5933C44.9193 93.9225 43.0311 95.8107 40.7019 95.8107C38.3727 95.8107 36.4845 93.9225 36.4845 91.5933C36.4845 89.2641 38.3727 87.3759 40.7019 87.3759C43.0311 87.3759 44.9193 89.2641 44.9193 91.5933ZM52.2998 91.5933C52.2998 97.9986 47.1072 103.191 40.7019 103.191C34.2965 103.191 29.104 97.9986 29.104 91.5933C29.104 85.1879 34.2965 79.9954 40.7019 79.9954C47.1072 79.9954 52.2998 85.1879 52.2998 91.5933Z" fill="inherit" stroke="none"></path>
</svg>